<?xml version="1.0" encoding="utf-8"?><!DOCTYPE svg PUBLIC "-//W3C//DTD SVG 1.1//EN" "http://www.w3.org/Graphics/SVG/1.1/DTD/svg11.dtd"><svg xmlns="http://www.w3.org/2000/svg" xmlns:xlink="http://www.w3.org/1999/xlink" id="preview" width="200" height="200" viewBox="0 0 200 200" xunitlength="15" yunitlength="15" xmin="-5" xmax="5" ymin="-5" ymax="5" ox="95" oy="95"><defs><style type="text/css">@import url("http://cdnjs.cloudflare.com/ajax/libs/KaTeX/0.2.0/katex.min.css")</style></defs><path d="M 174.8 102.6 L 182 105 L 174.8 107.4 L 176 105 z" stroke-width="1" stroke="black" fill="black"></path><path d="M 92.6 25.2 L 95 18 L 97.4 25.2 L 95 24 z" stroke-width="1" stroke="black" fill="black"></path><path d="M14,105 176,105 M95,24 95,186 M95,107.25 95,102.75 M110,107.25 110,102.75 M125,107.25 125,102.75 M140,107.25 140,102.75 M155,107.25 155,102.75 M170,107.25 170,102.75 M80,107.25 80,102.75 M65,107.25 65,102.75 M50,107.25 50,102.75 M35,107.25 35,102.75 M20,107.25 20,102.75 M97.25,105 92.75,105 M97.25,120 92.75,120 M97.25,135 92.75,135 M97.25,150 92.75,150 M97.25,165 92.75,165 M97.25,180 92.75,180 M97.25,90 92.75,90 M97.25,75 92.75,75 M97.25,60 92.75,60 M97.25,45 92.75,45 M97.25,30 92.75,30" stroke-width="2" stroke="black" fill="none"></path><text id="null" x="95" y="13" font-style="italic" font-family="KaTeX_Main, serif" font-size="9" font-weight="normal" text-anchor="middle" fill="black" stroke-width="0px">y</text><text id="null" x="187" y="108" font-style="italic" font-family="KaTeX_Main, serif" font-size="9" font-weight="normal" text-anchor="start" fill="black" stroke-width="0px">x</text><path id="null" d="M15.5,184.5 16.249,183.750 16.999,183.000 17.749,182.250 18.499,181.500 19.249,180.750 19.999,180.000 20.749,179.250 21.499,178.500 22.249,177.750 22.999,177.000 23.749,176.250 24.499,175.500 25.249,174.750 25.999,174.000 26.749,173.250 27.499,172.500 28.249,171.750 28.999,171.000 29.749,170.250 30.499,169.500 31.249,168.750 31.999,168.000 32.749,167.250 33.499,166.500 34.249,165.750 34.999,165.000 35.749,164.250 36.499,163.500 37.249,162.750 37.999,162.000 38.749,161.250 39.499,160.500 40.249,159.750 40.999,159.000 41.749,158.250 42.499,157.500 43.249,156.750 43.999,156.000 44.749,155.250 45.499,154.500 46.249,153.750 46.999,153.000 47.749,152.250 48.499,151.500 49.249,150.750 49.999,150.000 50.749,149.250 51.499,148.500 52.249,147.750 52.999,147.000 53.749,146.250 54.499,145.500 55.249,144.750 55.999,144.000 56.749,143.250 57.499,142.500 58.249,141.750 58.999,141.000 59.749,140.250 60.499,139.500 61.249,138.750 61.999,138.000 62.749,137.250 63.499,136.500 64.249,135.750 64.999,135.000 65.749,134.250 66.499,133.500 67.249,132.750 67.999,132.000 68.749,131.250 69.499,130.500 70.249,129.750 70.999,129.000 71.749,128.250 72.499,127.500 73.249,126.750 73.999,126.000 74.749,125.250 75.499,124.500 76.249,123.750 76.999,123.000 77.749,122.250 78.499,121.500 79.249,120.750 79.999,120.000 80.749,119.250 81.499,118.500 82.249,117.750 82.999,117.000 83.749,116.250 84.499,115.500 85.249,114.750 85.999,114.000 86.749,113.250 87.499,112.500 88.249,111.750 88.999,111.000 89.749,110.250 90.499,109.500 91.249,108.750 91.999,108.000 92.749,107.250 93.499,106.500 94.249,105.750 94.999,105.000 95.749,104.250 96.499,103.500 97.249,102.750 97.999,102.000 98.749,101.250 99.499,100.500 100.249,99.750 100.999,99.000 101.749,98.250 102.499,97.500 103.249,96.750 103.999,96.000 104.749,95.250 105.499,94.500 106.249,93.750 106.999,93.000 107.749,92.250 108.499,91.500 109.249,90.750 109.999,90.000 110.749,89.250 111.499,88.500 112.249,87.750 112.999,87.000 113.749,86.250 114.499,85.500 115.249,84.750 115.999,84.000 116.749,83.250 117.499,82.500 118.249,81.750 118.999,81.000 119.749,80.250 120.499,79.500 121.249,78.750 121.999,78.000 122.749,77.250 123.499,76.500 124.249,75.750 124.999,75.000 125.749,74.250 126.499,73.500 127.249,72.750 127.999,72.000 128.749,71.250 129.499,70.500 130.249,69.750 130.999,69.000 131.749,68.250 132.499,67.500 133.249,66.750 133.999,66.000 134.749,65.250 135.499,64.500 136.249,63.750 136.999,63.000 137.749,62.250 138.499,61.500 139.249,60.750 139.999,60.000 140.749,59.250 141.499,58.500 142.249,57.750 142.999,57.000 143.749,56.250 144.499,55.500 145.249,54.750 145.999,54.000 146.749,53.250 147.499,52.500 148.249,51.750 148.999,51.000 149.749,50.250 150.499,49.500 151.249,48.750 151.999,48.000 152.749,47.250 153.499,46.500 154.249,45.750 154.999,45.000 155.749,44.250 156.499,43.500 157.249,42.750 157.999,42.000 158.749,41.250 159.499,40.500 160.249,39.750 160.999,39.000 161.749,38.250 162.499,37.500 163.249,36.750 163.999,36.000 164.749,35.250 165.499,34.500 166.249,33.750 166.999,33.000 167.749,32.250 168.499,31.500 169.249,30.750 169.999,30.000 170.749,29.250 171.499,28.500 172.249,27.750 172.999,27.000 173.749,26.250 174.499,25.500 " stroke-width="2" stroke="blue" fill="none"></path></svg>