<?xml version="1.0" encoding="utf-8"?><!DOCTYPE svg PUBLIC "-//W3C//DTD SVG 1.1//EN" "http://www.w3.org/Graphics/SVG/1.1/DTD/svg11.dtd"><svg xmlns="http://www.w3.org/2000/svg" xmlns:xlink="http://www.w3.org/1999/xlink" id="preview" width="200" height="200" viewBox="0 0 200 200" xunitlength="15" yunitlength="15" xmin="-5" xmax="5" ymin="-5" ymax="5" ox="95" oy="95"><defs><style type="text/css">@import url("http://cdnjs.cloudflare.com/ajax/libs/KaTeX/0.2.0/katex.min.css")</style></defs><path d="M 174.8 102.6 L 182 105 L 174.8 107.4 L 176 105 z" stroke-width="1" stroke="black" fill="black"></path><path d="M 92.6 25.2 L 95 18 L 97.4 25.2 L 95 24 z" stroke-width="1" stroke="black" fill="black"></path><path d="M14,105 176,105 M95,24 95,186 M95,107.25 95,102.75 M110,107.25 110,102.75 M125,107.25 125,102.75 M140,107.25 140,102.75 M155,107.25 155,102.75 M170,107.25 170,102.75 M80,107.25 80,102.75 M65,107.25 65,102.75 M50,107.25 50,102.75 M35,107.25 35,102.75 M20,107.25 20,102.75 M97.25,105 92.75,105 M97.25,120 92.75,120 M97.25,135 92.75,135 M97.25,150 92.75,150 M97.25,165 92.75,165 M97.25,180 92.75,180 M97.25,90 92.75,90 M97.25,75 92.75,75 M97.25,60 92.75,60 M97.25,45 92.75,45 M97.25,30 92.75,30" stroke-width="2" stroke="black" fill="none"></path><text id="null" x="95" y="13" font-style="italic" font-family="KaTeX_Main, serif" font-size="9" font-weight="normal" text-anchor="middle" fill="black" stroke-width="0px">y</text><text id="null" x="187" y="108" font-style="italic" font-family="KaTeX_Main, serif" font-size="9" font-weight="normal" text-anchor="start" fill="black" stroke-width="0px">x</text><path id="null" d="M15.5,144.75 16.249,144.375 16.999,144.000 17.749,143.625 18.499,143.250 19.249,142.875 19.999,142.500 20.749,142.125 21.499,141.750 22.249,141.375 22.999,141.000 23.749,140.625 24.499,140.250 25.249,139.875 25.999,139.500 26.749,139.125 27.499,138.750 28.249,138.375 28.999,138.000 29.749,137.625 30.499,137.250 31.249,136.875 31.999,136.500 32.749,136.125 33.499,135.750 34.249,135.375 34.999,135.000 35.749,134.625 36.499,134.250 37.249,133.875 37.999,133.500 38.749,133.125 39.499,132.750 40.249,132.375 40.999,132.000 41.749,131.625 42.499,131.250 43.249,130.875 43.999,130.500 44.749,130.125 45.499,129.750 46.249,129.375 46.999,129.000 47.749,128.625 48.499,128.250 49.249,127.875 49.999,127.500 50.749,127.125 51.499,126.750 52.249,126.375 52.999,126.000 53.749,125.625 54.499,125.250 55.249,124.875 55.999,124.500 56.749,124.125 57.499,123.750 58.249,123.375 58.999,123.000 59.749,122.625 60.499,122.250 61.249,121.875 61.999,121.500 62.749,121.125 63.499,120.750 64.249,120.375 64.999,120.000 65.749,119.625 66.499,119.250 67.249,118.875 67.999,118.500 68.749,118.125 69.499,117.750 70.249,117.375 70.999,117.000 71.749,116.625 72.499,116.250 73.249,115.875 73.999,115.500 74.749,115.125 75.499,114.750 76.249,114.375 76.999,114.000 77.749,113.625 78.499,113.250 79.249,112.875 79.999,112.500 80.749,112.125 81.499,111.750 82.249,111.375 82.999,111.000 83.749,110.625 84.499,110.250 85.249,109.875 85.999,109.500 86.749,109.125 87.499,108.750 88.249,108.375 88.999,108.000 89.749,107.625 90.499,107.250 91.249,106.875 91.999,106.500 92.749,106.125 93.499,105.750 94.249,105.375 94.999,105.000 95.749,104.625 96.499,104.250 97.249,103.875 97.999,103.500 98.749,103.125 99.499,102.750 100.249,102.375 100.999,102.000 101.749,101.625 102.499,101.250 103.249,100.875 103.999,100.500 104.749,100.125 105.499,99.750 106.249,99.375 106.999,99.000 107.749,98.625 108.499,98.250 109.249,97.875 109.999,97.500 110.749,97.125 111.499,96.750 112.249,96.375 112.999,96.000 113.749,95.625 114.499,95.250 115.249,94.875 115.999,94.500 116.749,94.125 117.499,93.750 118.249,93.375 118.999,93.000 119.749,92.625 120.499,92.250 121.249,91.875 121.999,91.500 122.749,91.125 123.499,90.750 124.249,90.375 124.999,90.000 125.749,89.625 126.499,89.250 127.249,88.875 127.999,88.500 128.749,88.125 129.499,87.750 130.249,87.375 130.999,87.000 131.749,86.625 132.499,86.250 133.249,85.875 133.999,85.500 134.749,85.125 135.499,84.750 136.249,84.375 136.999,84.000 137.749,83.625 138.499,83.250 139.249,82.875 139.999,82.500 140.749,82.125 141.499,81.750 142.249,81.375 142.999,81.000 143.749,80.625 144.499,80.250 145.249,79.875 145.999,79.500 146.749,79.125 147.499,78.750 148.249,78.375 148.999,78.000 149.749,77.625 150.499,77.250 151.249,76.875 151.999,76.500 152.749,76.125 153.499,75.750 154.249,75.375 154.999,75.000 155.749,74.625 156.499,74.250 157.249,73.875 157.999,73.500 158.749,73.125 159.499,72.750 160.249,72.375 160.999,72.000 161.749,71.625 162.499,71.250 163.249,70.875 163.999,70.500 164.749,70.125 165.499,69.750 166.249,69.375 166.999,69.000 167.749,68.625 168.499,68.250 169.249,67.875 169.999,67.500 170.749,67.125 171.499,66.750 172.249,66.375 172.999,66.000 173.749,65.625 174.499,65.250 " stroke-width="2" stroke="blue" fill="none"></path><path id="null" d="M30.5,184.5 31.999,183.000 32.749,182.250 33.499,181.500 34.249,180.750 34.999,180.000 35.749,179.250 36.499,178.500 37.249,177.750 37.999,177.000 38.749,176.250 39.499,175.500 40.249,174.750 40.999,174.000 41.749,173.250 42.499,172.500 43.249,171.750 43.999,171.000 44.749,170.250 45.499,169.500 46.249,168.750 46.999,168.000 47.749,167.250 48.499,166.500 49.249,165.750 49.999,165.000 50.749,164.250 51.499,163.500 52.249,162.750 52.999,162.000 53.749,161.250 54.499,160.500 55.249,159.750 55.999,159.000 56.749,158.250 57.499,157.500 58.249,156.750 58.999,156.000 59.749,155.250 60.499,154.500 61.249,153.750 61.999,153.000 62.749,152.250 63.499,151.500 64.249,150.750 64.999,150.000 65.749,149.250 66.499,148.500 67.249,147.750 67.999,147.000 68.749,146.250 69.499,145.500 70.249,144.750 70.999,144.000 71.749,143.250 72.499,142.500 73.249,141.750 73.999,141.000 74.749,140.250 75.499,139.500 76.249,138.750 76.999,138.000 77.749,137.250 78.499,136.500 79.249,135.750 79.999,135.000 80.749,134.250 81.499,133.500 82.249,132.750 82.999,132.000 83.749,131.250 84.499,130.500 85.249,129.750 85.999,129.000 86.749,128.250 87.499,127.500 88.249,126.750 88.999,126.000 89.749,125.250 90.499,124.500 91.249,123.750 91.999,123.000 92.749,122.250 93.499,121.500 94.249,120.750 94.999,120.000 95.749,119.250 96.499,118.500 97.249,117.750 97.999,117.000 98.749,116.250 99.499,115.500 100.249,114.750 100.999,114.000 101.749,113.250 102.499,112.500 103.249,111.750 103.999,111.000 104.749,110.250 105.499,109.500 106.249,108.750 106.999,108.000 107.749,107.250 108.499,106.500 109.249,105.750 109.999,105.000 110.749,104.250 111.499,103.500 112.249,102.750 112.999,102.000 113.749,101.250 114.499,100.500 115.249,99.750 115.999,99.000 116.749,98.250 117.499,97.500 118.249,96.750 118.999,96.000 119.749,95.250 120.499,94.500 121.249,93.750 121.999,93.000 122.749,92.250 123.499,91.500 124.249,90.750 124.999,90.000 125.749,89.250 126.499,88.500 127.249,87.750 127.999,87.000 128.749,86.250 129.499,85.500 130.249,84.750 130.999,84.000 131.749,83.250 132.499,82.500 133.249,81.750 133.999,81.000 134.749,80.250 135.499,79.500 136.249,78.750 136.999,78.000 137.749,77.250 138.499,76.500 139.249,75.750 139.999,75.000 140.749,74.250 141.499,73.500 142.249,72.750 142.999,72.000 143.749,71.250 144.499,70.500 145.249,69.750 145.999,69.000 146.749,68.250 147.499,67.500 148.249,66.750 148.999,66.000 149.749,65.250 150.499,64.500 151.249,63.750 151.999,63.000 152.749,62.250 153.499,61.500 154.249,60.750 154.999,60.000 155.749,59.250 156.499,58.500 157.249,57.750 157.999,57.000 158.749,56.250 159.499,55.500 160.249,54.750 160.999,54.000 161.749,53.250 162.499,52.500 163.249,51.750 163.999,51.000 164.749,50.250 165.499,49.500 166.249,48.750 166.999,48.000 167.749,47.250 168.499,46.500 169.249,45.750 169.999,45.000 170.749,44.250 171.499,43.500 172.249,42.750 172.999,42.000 173.749,41.250 174.499,40.500 " stroke-width="2" stroke="blue" fill="none"></path></svg>